# xmcd
#
# Track frame offsets:
#	150
#	44592
#	64103
#	108119
#	121549
#	172350
#	204637
#	246175
#	268360
#
# Disc length: 4057 seconds
#
# Revision: 0
# Processed by: cddbd v1.5.2PL0 Copyright (c) Steve Scherf et al.
# Submitted via: audiograbber 1.83.01
#
DISCID=860fd709
DTITLE=Grateful Dead - 76-07-18 Orpheum Theatre, San Francisco CA
DYEAR=1900
DGENRE=
TTITLE0=Mississippi Half-Step
TTITLE1=Cassidy
TTITLE2=Row Jimmy
TTITLE3=Mama Tried
TTITLE4=Scarlet Begonias
TTITLE5=Looks Like Rain
TTITLE6=Tennessee Jed
TTITLE7=New Minglewood Blues
TTITLE8=Loser
EXTD=
EXTT0=
EXTT1=
EXTT2=
EXTT3=
EXTT4=
EXTT5=
EXTT6=
EXTT7=
EXTT8=
PLAYORDER=
